# xmcd
#
# Track frame offsets:
#	150
#	16330
#	33756
#	51092
#	76788
#	100895
#	114513
#	126744
#	142235
#	159732
#	183673
#
# Disc length: 2731 seconds
#
# Revision: 0
# Processed by: cddbd v1.5.2PL0 Copyright (c) Steve Scherf et al.
# Submitted via: dBpowerAMP V4.0
#
DISCID=950aa90b
DTITLE=Cyndi Lauper - Memphis Blues
DYEAR=1900
DGENRE=
TTITLE0=I'm Just Your Fool (feat. Charlie Musselwhite)
TTITLE1=Shattered Dreams (feat. Allen Toussaint)
TTITLE2=Early in the Morning (feat. Allen Toussaint and B.B. King)
TTITLE3=Romance in the Dark 
TTITLE4=How Blue Can You Get (feat. Jonny Lang) 
TTITLE5=Down Don't Bother Me (feat. Charlie Musselwhite)
TTITLE6=Don't Cry No More 
TTITLE7=Rollin and Tumblin (feat. Kenny Brown and Ann Peebles) 	
TTITLE8=Down So Low
TTITLE9=Mother Earth (feat. Allen Toussaint) 
TTITLE10=Cross Roads (feat. Jonny Lang) 
EXTD=
EXTT0=
EXTT1=
EXTT2=
EXTT3=
EXTT4=
EXTT5=
EXTT6=
EXTT7=
EXTT8=
EXTT9=
EXTT10=
PLAYORDER=
